<svg width="127" height="38" viewBox="0 0 127 38" fill="none" xmlns="http://www.w3.org/2000/svg">
<path d="M123.369 5.84279V3.63071H121.277V2.21209H123.369V0H124.908V2.21209H127V3.63071H124.908V5.84279H123.369Z" fill="white"/>
<path d="M31.5407 13.3289H35.9999V21.4024L35.4366 24.3595C35.4366 22.2316 35.64 20.3384 36.0468 18.6799C36.4536 17.0214 37.0795 15.7228 37.9244 14.784C38.8006 13.814 39.8958 13.3289 41.2101 13.3289H45.5284V17.3656H41.6795C40.3652 17.3656 39.2856 17.6942 38.4407 18.3514C37.5958 19.0085 36.97 20.0099 36.5632 21.3554C36.1877 22.6697 35.9999 24.3595 35.9999 26.4248V36.7982H31.5407V13.3289Z" fill="white"/>
<path d="M53.8283 37.5493C52.3888 37.5493 51.0589 37.252 49.8385 36.6574C48.6494 36.0629 47.695 35.218 46.9753 34.1227C46.2555 32.9962 45.8957 31.6976 45.8957 30.2268C45.8957 28.2867 46.4433 26.769 47.5385 25.6738C48.6651 24.5473 50.0576 23.7649 51.7161 23.3269C53.4059 22.8888 55.2834 22.6071 57.3487 22.482C59.1011 22.4194 60.2902 22.1064 60.916 21.5432C61.5419 20.9486 61.7453 20.2133 61.5262 19.3371C61.3385 18.4922 60.8222 17.835 59.9773 17.3656C59.1637 16.865 58.0371 16.6146 56.5977 16.6146C54.814 16.6146 53.4059 17.0058 52.3732 17.7881C51.3718 18.5391 50.8712 19.6656 50.8712 21.1677L46.5059 20.6983C46.5059 19.165 46.9283 17.7881 47.7732 16.5677C48.6181 15.316 49.8072 14.3459 51.3406 13.6575C52.9052 12.9378 54.6576 12.5779 56.5977 12.5779C59.5392 12.5779 61.8548 13.2507 63.5446 14.5963C65.2657 15.9418 66.1262 18.1949 66.1262 21.3554V36.7982H61.6671V30.2268L62.1364 28.3493C62.1364 30.0391 61.8079 31.588 61.1507 32.9962C60.5249 34.4044 59.5861 35.5152 58.3344 36.3288C57.0827 37.1425 55.5807 37.5493 53.8283 37.5493ZM54.7671 33.5125C56.0188 33.5125 57.1609 33.2153 58.1936 32.6207C59.2575 32.0261 60.1024 31.1343 60.7283 29.9452C61.3541 28.7248 61.6671 27.2071 61.6671 25.3921V22.0126L62.2773 21.4024C62.2773 22.6541 62.0113 23.6241 61.4793 24.3126C60.9786 24.9697 60.3371 25.4234 59.5548 25.6738C58.7725 25.9241 57.8337 26.1119 56.7385 26.237H56.4569C54.6732 26.3309 53.2337 26.6595 52.1385 27.2228C51.0433 27.7547 50.4957 28.7091 50.4957 30.086C50.4957 30.7744 50.6521 31.369 50.965 31.8697C51.3093 32.3704 51.8099 32.7772 52.4671 33.0901C53.1242 33.3717 53.8909 33.5125 54.7671 33.5125Z" fill="white"/>
<path d="M68.9644 13.3289H73.4236V21.4024L72.8603 24.3595C72.8603 22.2316 73.0637 20.3384 73.4705 18.6799C73.8773 17.0214 74.5032 15.7228 75.3481 14.784C76.2243 13.814 77.3195 13.3289 78.6338 13.3289H82.9521V17.3656H79.1032C77.7889 17.3656 76.7093 17.6942 75.8644 18.3514C75.0195 19.0085 74.3937 20.0099 73.9868 21.3554C73.6113 22.6697 73.4236 24.3595 73.4236 26.4248V36.7982H68.9644V13.3289Z" fill="white"/>
<path d="M91.252 37.5493C89.8125 37.5493 88.4826 37.252 87.2622 36.6574C86.0731 36.0629 85.1187 35.218 84.399 34.1227C83.6792 32.9962 83.3194 31.6976 83.3194 30.2268C83.3194 28.2867 83.867 26.769 84.9622 25.6738C86.0887 24.5473 87.4813 23.7649 89.1398 23.3269C90.8295 22.8888 92.7071 22.6071 94.7724 22.482C96.5248 22.4194 97.7139 22.1064 98.3397 21.5432C98.9656 20.9486 99.169 20.2133 98.9499 19.3371C98.7622 18.4922 98.2458 17.835 97.4009 17.3656C96.5873 16.865 95.4608 16.6146 94.0214 16.6146C92.2377 16.6146 90.8296 17.0058 89.7969 17.7881C88.7955 18.5391 88.2949 19.6656 88.2949 21.1677L83.9296 20.6983C83.9296 19.165 84.352 17.7881 85.1969 16.5677C86.0418 15.316 87.2309 14.3459 88.7642 13.6575C90.3289 12.9378 92.0812 12.5779 94.0214 12.5779C96.9629 12.5779 99.2785 13.2507 100.968 14.5963C102.689 15.9418 103.55 18.1949 103.55 21.3554V36.7982H99.0907V30.2268L99.5601 28.3493C99.5601 30.0391 99.2316 31.588 98.5744 32.9962C97.9486 34.4044 97.0098 35.5152 95.7581 36.3288C94.5064 37.1425 93.0044 37.5493 91.252 37.5493ZM92.1908 33.5125C93.4425 33.5125 94.5846 33.2153 95.6173 32.6207C96.6812 32.0261 97.5261 31.1343 98.152 29.9452C98.7778 28.7248 99.0907 27.2071 99.0907 25.3921V22.0126L99.7009 21.4024C99.7009 22.6541 99.435 23.6241 98.903 24.3126C98.4023 24.9697 97.7608 25.4234 96.9785 25.6738C96.1962 25.9241 95.2574 26.1119 94.1622 26.237H93.8806C92.0969 26.3309 90.6574 26.6595 89.5622 27.2228C88.467 27.7547 87.9193 28.7091 87.9193 30.086C87.9193 30.7744 88.0758 31.369 88.3887 31.8697C88.733 32.3704 89.2336 32.7772 89.8908 33.0901C90.5479 33.3717 91.3146 33.5125 92.1908 33.5125Z" fill="white"/>
<path d="M116.811 36.7982C114.526 36.7982 112.774 36.2193 111.554 35.0615C110.365 33.8724 109.77 32.1513 109.77 29.8983V5.81874H114.229V29.9452C114.229 30.884 114.464 31.588 114.933 32.0574C115.403 32.5268 116.107 32.7615 117.045 32.7615H121.27V36.7982H116.811ZM104.701 13.3289H121.27V17.3656H104.701V13.3289Z" fill="white"/>
<path d="M11.1714 3.94117H14.5275H17.8836L29.055 36.7982H24.4081L13.5653 4.97382H15.5367L4.64692 36.7982H0L11.1714 3.94117Z" fill="white"/>
<path d="M22.7047 27.1345V22.4026L18.635 19.7313L14.5653 22.4026L10.4956 19.7313L6.42586 22.4026V27.1345L10.4956 24.4632L14.5653 27.1345L18.635 24.4632L22.7047 27.1345Z" fill="white"/>
</svg>
